<svg width="14" height="15" viewBox="0 0 14 15" fill="none" xmlns="http://www.w3.org/2000/svg">
<path d="M13.4202 6.64174L7.79524 1.01674C7.58428 0.805925 7.29825 0.6875 7.00001 0.6875C6.70177 0.6875 6.41573 0.805925 6.20477 1.01674L0.579773 6.64174C0.474799 6.74594 0.391587 6.86996 0.334975 7.0066C0.278363 7.14325 0.249481 7.28978 0.250007 7.43768V14.1877C0.250007 14.3369 0.30927 14.4799 0.41476 14.5854C0.520249 14.6909 0.663323 14.7502 0.812507 14.7502H13.1875C13.3367 14.7502 13.4798 14.6909 13.5853 14.5854C13.6907 14.4799 13.75 14.3369 13.75 14.1877V7.43768C13.7505 7.28978 13.7217 7.14325 13.665 7.0066C13.6084 6.86996 13.5252 6.74594 13.4202 6.64174ZM12.625 13.6252H1.37501V7.43768L7.00001 1.81268L12.625 7.43768V13.6252Z" fill="#475467"/>
</svg>
