<svg width="16" height="16" viewBox="0 0 16 16" fill="none" xmlns="http://www.w3.org/2000/svg">
<path d="M15.5 9.60547V14.6055C15.5 14.7712 15.4342 14.9302 15.3169 15.0474C15.1997 15.1646 15.0408 15.2305 14.875 15.2305H1.125C0.95924 15.2305 0.800269 15.1646 0.683058 15.0474C0.565848 14.9302 0.5 14.7712 0.5 14.6055V9.60547C0.5 9.43971 0.565848 9.28074 0.683058 9.16353C0.800269 9.04632 0.95924 8.98047 1.125 8.98047C1.29076 8.98047 1.44973 9.04632 1.56694 9.16353C1.68415 9.28074 1.75 9.43971 1.75 9.60547V13.9805H14.25V9.60547C14.25 9.43971 14.3158 9.28074 14.4331 9.16353C14.5503 9.04632 14.7092 8.98047 14.875 8.98047C15.0408 8.98047 15.1997 9.04632 15.3169 9.16353C15.4342 9.28074 15.5 9.43971 15.5 9.60547ZM7.55781 10.0477C7.61586 10.1058 7.68479 10.1519 7.76066 10.1833C7.83654 10.2148 7.91787 10.231 8 10.231C8.08213 10.231 8.16346 10.2148 8.23934 10.1833C8.31521 10.1519 8.38414 10.1058 8.44219 10.0477L11.5672 6.92266C11.6253 6.86459 11.6713 6.79565 11.7027 6.71978C11.7342 6.64391 11.7503 6.56259 11.7503 6.48047C11.7503 6.39835 11.7342 6.31703 11.7027 6.24116C11.6713 6.16529 11.6253 6.09635 11.5672 6.03828C11.5091 5.98021 11.4402 5.93415 11.3643 5.90272C11.2884 5.8713 11.2071 5.85512 11.125 5.85512C11.0429 5.85512 10.9616 5.8713 10.8857 5.90272C10.8098 5.93415 10.7409 5.98021 10.6828 6.03828L8.625 8.09688V0.855469C8.625 0.689708 8.55915 0.530737 8.44194 0.413527C8.32473 0.296317 8.16576 0.230469 8 0.230469C7.83424 0.230469 7.67527 0.296317 7.55806 0.413527C7.44085 0.530737 7.375 0.689708 7.375 0.855469V8.09688L5.31719 6.03828C5.19991 5.92101 5.04085 5.85512 4.875 5.85512C4.70915 5.85512 4.55009 5.92101 4.43281 6.03828C4.31554 6.15556 4.24965 6.31462 4.24965 6.48047C4.24965 6.64632 4.31554 6.80538 4.43281 6.92266L7.55781 10.0477Z" fill="#475467"/>
</svg>
