<svg width="16" height="16" viewBox="0 0 16 16" fill="none" xmlns="http://www.w3.org/2000/svg">
<path d="M12.375 6.48047C12.375 6.64623 12.3092 6.8052 12.1919 6.92241C12.0747 7.03962 11.9158 7.10547 11.75 7.10547H6.75C6.58424 7.10547 6.42527 7.03962 6.30806 6.92241C6.19085 6.8052 6.125 6.64623 6.125 6.48047C6.125 6.31471 6.19085 6.15574 6.30806 6.03853C6.42527 5.92132 6.58424 5.85547 6.75 5.85547H11.75C11.9158 5.85547 12.0747 5.92132 12.1919 6.03853C12.3092 6.15574 12.375 6.31471 12.375 6.48047ZM11.75 8.35547H6.75C6.58424 8.35547 6.42527 8.42132 6.30806 8.53853C6.19085 8.65574 6.125 8.81471 6.125 8.98047C6.125 9.14623 6.19085 9.3052 6.30806 9.42241C6.42527 9.53962 6.58424 9.60547 6.75 9.60547H11.75C11.9158 9.60547 12.0747 9.53962 12.1919 9.42241C12.3092 9.3052 12.375 9.14623 12.375 8.98047C12.375 8.81471 12.3092 8.65574 12.1919 8.53853C12.0747 8.42132 11.9158 8.35547 11.75 8.35547ZM15.5 1.48047V13.9805C15.5 14.312 15.3683 14.6299 15.1339 14.8644C14.8995 15.0988 14.5815 15.2305 14.25 15.2305H1.75C1.41848 15.2305 1.10054 15.0988 0.866116 14.8644C0.631696 14.6299 0.5 14.312 0.5 13.9805V1.48047C0.5 1.14895 0.631696 0.831006 0.866116 0.596585C1.10054 0.362165 1.41848 0.230469 1.75 0.230469H14.25C14.5815 0.230469 14.8995 0.362165 15.1339 0.596585C15.3683 0.831006 15.5 1.14895 15.5 1.48047ZM1.75 13.9805H3.625V1.48047H1.75V13.9805ZM14.25 13.9805V1.48047H4.875V13.9805H14.25Z" fill="#475467"/>
</svg>
