<svg width="21" height="20" viewBox="0 0 21 20" fill="none" xmlns="http://www.w3.org/2000/svg">
<path d="M18.4438 3.75H3.44385C3.27809 3.75 3.11912 3.81585 3.00191 3.93306C2.8847 4.05027 2.81885 4.20924 2.81885 4.375V15C2.81885 15.3315 2.95054 15.6495 3.18496 15.8839C3.41938 16.1183 3.73733 16.25 4.06885 16.25H17.8188C18.1504 16.25 18.4683 16.1183 18.7027 15.8839C18.9372 15.6495 19.0688 15.3315 19.0688 15V4.375C19.0688 4.20924 19.003 4.05027 18.8858 3.93306C18.7686 3.81585 18.6096 3.75 18.4438 3.75ZM16.8368 5L10.9438 10.4023L5.05088 5H16.8368ZM17.8188 15H4.06885V5.79609L10.5212 11.7109C10.6365 11.8168 10.7873 11.8755 10.9438 11.8755C11.1004 11.8755 11.2512 11.8168 11.3665 11.7109L17.8188 5.79609V15Z" fill="#FF0100"/>
</svg>
