<svg width="12" height="12" viewBox="0 0 12 12" fill="none" xmlns="http://www.w3.org/2000/svg">
<path d="M11.4868 1.13879V9.09374C11.4868 9.2596 11.4209 9.41866 11.3036 9.53593C11.1863 9.65321 11.0273 9.71909 10.8614 9.71909C10.6956 9.71909 10.5365 9.65321 10.4192 9.53593C10.302 9.41866 10.2361 9.2596 10.2361 9.09374L10.2366 2.64747L1.58065 11.3035C1.46344 11.4207 1.30446 11.4865 1.1387 11.4865C0.972944 11.4865 0.813973 11.4207 0.696763 11.3035C0.579552 11.1862 0.513705 11.0273 0.513705 10.8615C0.513704 10.6957 0.579552 10.5368 0.696763 10.4196L9.35274 1.76359L2.90647 1.76414C2.74062 1.76414 2.58156 1.69826 2.46428 1.58098C2.34701 1.4637 2.28112 1.30465 2.28112 1.13879C2.28112 0.97294 2.34701 0.81388 2.46428 0.696605C2.58156 0.579329 2.74062 0.513445 2.90647 0.513444L10.8614 0.513444C10.9436 0.513398 11.0249 0.529543 11.1008 0.560953C11.1767 0.592363 11.2456 0.638425 11.3037 0.696503C11.3618 0.754581 11.4079 0.823536 11.4393 0.899428C11.4707 0.975319 11.4868 1.05666 11.4868 1.13879Z" fill="#FF0100"/>
</svg>
