<svg width="16" height="16" viewBox="0 0 16 16" fill="none" xmlns="http://www.w3.org/2000/svg">
<path d="M6.31885 14.875C6.31885 15.0408 6.253 15.1997 6.13579 15.3169C6.01858 15.4342 5.85961 15.5 5.69385 15.5H0.693848C0.528087 15.5 0.369116 15.4342 0.251906 15.3169C0.134696 15.1997 0.0688477 15.0408 0.0688477 14.875V1.125C0.0688477 0.95924 0.134696 0.800269 0.251906 0.683058C0.369116 0.565848 0.528087 0.5 0.693848 0.5H5.69385C5.85961 0.5 6.01858 0.565848 6.13579 0.683058C6.253 0.800269 6.31885 0.95924 6.31885 1.125C6.31885 1.29076 6.253 1.44973 6.13579 1.56694C6.01858 1.68415 5.85961 1.75 5.69385 1.75H1.31885V14.25H5.69385C5.85961 14.25 6.01858 14.3158 6.13579 14.4331C6.253 14.5503 6.31885 14.7092 6.31885 14.875ZM14.886 7.55781L11.761 4.43281C11.6438 4.31554 11.4847 4.24965 11.3188 4.24965C11.153 4.24965 10.9939 4.31554 10.8767 4.43281C10.7594 4.55009 10.6935 4.70915 10.6935 4.875C10.6935 5.04085 10.7594 5.19991 10.8767 5.31719L12.9353 7.375H5.69385C5.52809 7.375 5.36912 7.44085 5.25191 7.55806C5.1347 7.67527 5.06885 7.83424 5.06885 8C5.06885 8.16576 5.1347 8.32473 5.25191 8.44194C5.36912 8.55915 5.52809 8.625 5.69385 8.625H12.9353L10.8767 10.6828C10.7594 10.8001 10.6935 10.9591 10.6935 11.125C10.6935 11.2909 10.7594 11.4499 10.8767 11.5672C10.9939 11.6845 11.153 11.7503 11.3188 11.7503C11.4847 11.7503 11.6438 11.6845 11.761 11.5672L14.886 8.44219C14.9441 8.38414 14.9902 8.31521 15.0217 8.23934C15.0532 8.16346 15.0693 8.08213 15.0693 8C15.0693 7.91787 15.0532 7.83654 15.0217 7.76066C14.9902 7.68479 14.9441 7.61586 14.886 7.55781Z" fill="#FF0100"/>
</svg>
