<svg width="14" height="15" viewBox="0 0 14 15" fill="none" xmlns="http://www.w3.org/2000/svg">
<path d="M6.19229 11.0383C6.2504 11.0963 6.2965 11.1653 6.32795 11.2411C6.35941 11.317 6.3756 11.3983 6.3756 11.4805C6.3756 11.5626 6.35941 11.6439 6.32795 11.7198C6.2965 11.7957 6.2504 11.8646 6.19229 11.9227L3.69229 14.4227C3.63425 14.4808 3.56531 14.5269 3.48944 14.5583C3.41357 14.5898 3.33224 14.606 3.2501 14.606C3.16797 14.606 3.08664 14.5898 3.01077 14.5583C2.93489 14.5269 2.86596 14.4808 2.80792 14.4227L0.307916 11.9227C0.249847 11.8646 0.203784 11.7957 0.172358 11.7198C0.140931 11.6439 0.124756 11.5626 0.124756 11.4805C0.124756 11.3983 0.140931 11.317 0.172358 11.2412C0.203784 11.1653 0.249847 11.0964 0.307916 11.0383C0.425191 10.921 0.584251 10.8551 0.750103 10.8551C0.832225 10.8551 0.913543 10.8713 0.989414 10.9027C1.06528 10.9342 1.13422 10.9802 1.19229 11.0383L2.6251 12.4719V1.48047C2.6251 1.31471 2.69095 1.15574 2.80816 1.03853C2.92537 0.92132 3.08434 0.855472 3.2501 0.855472C3.41586 0.855472 3.57483 0.92132 3.69204 1.03853C3.80926 1.15574 3.8751 1.31471 3.8751 1.48047V12.4719L5.30792 11.0383C5.36596 10.9802 5.43489 10.9341 5.51077 10.9026C5.58664 10.8712 5.66797 10.855 5.7501 10.855C5.83224 10.855 5.91357 10.8712 5.98944 10.9026C6.06531 10.9341 6.13425 10.9802 6.19229 11.0383ZM13.6923 3.53828L11.1923 1.03828C11.1342 0.980174 11.0653 0.934075 10.9894 0.902622C10.9136 0.87117 10.8322 0.85498 10.7501 0.85498C10.668 0.85498 10.5866 0.87117 10.5108 0.902622C10.4349 0.934075 10.366 0.980174 10.3079 1.03828L7.80792 3.53828C7.69064 3.65556 7.62476 3.81462 7.62476 3.98047C7.62476 4.14632 7.69064 4.30538 7.80792 4.42266C7.92519 4.53994 8.08425 4.60582 8.2501 4.60582C8.41596 4.60582 8.57502 4.53994 8.69229 4.42266L10.1251 2.98907V13.9805C10.1251 14.1462 10.191 14.3052 10.3082 14.4224C10.4254 14.5396 10.5843 14.6055 10.7501 14.6055C10.9159 14.6055 11.0748 14.5396 11.192 14.4224C11.3093 14.3052 11.3751 14.1462 11.3751 13.9805V2.98907L12.8079 4.42266C12.9252 4.53994 13.0843 4.60582 13.2501 4.60582C13.416 4.60582 13.575 4.53994 13.6923 4.42266C13.8096 4.30538 13.8755 4.14632 13.8755 3.98047C13.8755 3.81462 13.8096 3.65556 13.6923 3.53828Z" fill="white"/>
</svg>
