<svg width="17" height="17" viewBox="0 0 17 17" fill="none" xmlns="http://www.w3.org/2000/svg">
<path d="M15.3165 11.3798L11.636 9.73056L11.6259 9.72587C11.4348 9.64415 11.2264 9.61135 11.0195 9.63045C10.8125 9.64954 10.6136 9.71993 10.4407 9.83524C10.4204 9.84869 10.4008 9.86329 10.3821 9.87899L8.48057 11.5001C7.27589 10.9149 6.03214 9.68055 5.44698 8.49149L7.07042 6.56102C7.08604 6.54149 7.10089 6.52196 7.11495 6.50087C7.22778 6.32845 7.29624 6.13081 7.31423 5.92553C7.33223 5.72026 7.29919 5.51372 7.21807 5.3243V5.31493L5.56417 1.62821C5.45693 1.38076 5.27255 1.17463 5.03853 1.04058C4.80452 0.906541 4.53343 0.851774 4.26573 0.884461C3.20711 1.02376 2.2354 1.54366 1.53208 2.34704C0.828767 3.15042 0.441941 4.18234 0.443855 5.25009C0.443855 11.4532 5.49073 16.5001 11.6939 16.5001C12.7616 16.502 13.7935 16.1152 14.5969 15.4119C15.4003 14.7085 15.9202 13.7368 16.0595 12.6782C16.0922 12.4106 16.0376 12.1396 15.9037 11.9056C15.7698 11.6716 15.5638 11.4871 15.3165 11.3798ZM11.6939 15.2501C9.04258 15.2472 6.50072 14.1927 4.62598 12.318C2.75125 10.4432 1.69675 7.90136 1.69385 5.25009C1.69092 4.48719 1.96577 3.7493 2.46709 3.17423C2.9684 2.59916 3.6619 2.22623 4.41807 2.12509C4.41777 2.1282 4.41777 2.13134 4.41807 2.13446L6.0587 5.80634L4.44385 7.73915C4.42746 7.75801 4.41258 7.77812 4.39932 7.7993C4.28176 7.97971 4.21279 8.18743 4.1991 8.40232C4.18541 8.61722 4.22747 8.83201 4.3212 9.02587C5.02901 10.4735 6.4876 11.9212 7.95089 12.6282C8.14617 12.7211 8.3622 12.7617 8.57787 12.7461C8.79354 12.7304 9.00148 12.6592 9.18135 12.5391C9.20141 12.5256 9.22071 12.511 9.23917 12.4954L11.1384 10.8751L14.8103 12.5196C14.8103 12.5196 14.8165 12.5196 14.8189 12.5196C14.7189 13.2769 14.3466 13.9718 13.7714 14.4743C13.1962 14.9769 12.4577 15.2527 11.6939 15.2501Z" fill="#FF0100"/>
</svg>
