<svg width="14" height="18" viewBox="0 0 14 18" fill="none" xmlns="http://www.w3.org/2000/svg">
<path d="M2.81807 14.5C2.88375 14.5494 2.95853 14.5853 3.03811 14.6057C3.1177 14.6262 3.20053 14.6307 3.28188 14.6191C3.36322 14.6075 3.44148 14.58 3.51217 14.5381C3.58286 14.4962 3.6446 14.4408 3.69385 14.375C4.07226 13.8705 4.56294 13.4609 5.12704 13.1789C5.69114 12.8968 6.31316 12.75 6.94385 12.75C7.57453 12.75 8.19655 12.8968 8.76065 13.1789C9.32475 13.4609 9.81544 13.8705 10.1938 14.375C10.2431 14.4407 10.3048 14.496 10.3754 14.5378C10.446 14.5796 10.5242 14.6071 10.6055 14.6187C10.6867 14.6303 10.7695 14.6258 10.849 14.6054C10.9285 14.5851 11.0032 14.5492 11.0688 14.5C11.1345 14.4508 11.1898 14.3891 11.2316 14.3184C11.2735 14.2478 11.301 14.1696 11.3126 14.0884C11.3242 14.0071 11.3197 13.9244 11.2993 13.8449C11.2789 13.7654 11.2431 13.6907 11.1938 13.625C10.6404 12.883 9.90242 12.2988 9.05322 11.9305C9.5186 11.5056 9.84466 10.9499 9.98859 10.3364C10.1325 9.72289 10.0876 9.0802 9.85974 8.49267C9.63188 7.90514 9.23171 7.40023 8.71176 7.0442C8.19181 6.68816 7.57636 6.49765 6.94619 6.49765C6.31602 6.49765 5.70058 6.68816 5.18062 7.0442C4.66067 7.40023 4.2605 7.90514 4.03264 8.49267C3.80478 9.0802 3.75986 9.72289 3.9038 10.3364C4.04773 10.9499 4.37378 11.5056 4.83916 11.9305C3.98825 12.2981 3.24857 12.8824 2.69385 13.625C2.59431 13.7575 2.55148 13.9241 2.57477 14.0882C2.59807 14.2523 2.68558 14.4004 2.81807 14.5ZM6.94385 7.75C7.31469 7.75 7.6772 7.85997 7.98554 8.06599C8.29388 8.27202 8.53421 8.56486 8.67612 8.90747C8.81804 9.25008 8.85517 9.62708 8.78282 9.9908C8.71047 10.3545 8.5319 10.6886 8.26967 10.9508C8.00745 11.213 7.67336 11.3916 7.30964 11.464C6.94593 11.5363 6.56893 11.4992 6.22632 11.3573C5.8837 11.2154 5.59087 10.975 5.38484 10.6667C5.17881 10.3584 5.06885 9.99584 5.06885 9.625C5.06885 9.12772 5.26639 8.65081 5.61802 8.29917C5.96965 7.94754 6.44657 7.75 6.94385 7.75ZM12.5688 0.875H1.31885C0.987327 0.875 0.669385 1.0067 0.434964 1.24112C0.200544 1.47554 0.0688477 1.79348 0.0688477 2.125V15.875C0.0688477 16.2065 0.200544 16.5245 0.434964 16.7589C0.669385 16.9933 0.987327 17.125 1.31885 17.125H12.5688C12.9004 17.125 13.2183 16.9933 13.4527 16.7589C13.6872 16.5245 13.8188 16.2065 13.8188 15.875V2.125C13.8188 1.79348 13.6872 1.47554 13.4527 1.24112C13.2183 1.0067 12.9004 0.875 12.5688 0.875ZM12.5688 15.875H1.31885V2.125H12.5688V15.875ZM3.81885 4C3.81885 3.83424 3.8847 3.67527 4.00191 3.55806C4.11912 3.44085 4.27809 3.375 4.44385 3.375H9.44385C9.60961 3.375 9.76858 3.44085 9.88579 3.55806C10.003 3.67527 10.0688 3.83424 10.0688 4C10.0688 4.16576 10.003 4.32473 9.88579 4.44194C9.76858 4.55915 9.60961 4.625 9.44385 4.625H4.44385C4.27809 4.625 4.11912 4.55915 4.00191 4.44194C3.8847 4.32473 3.81885 4.16576 3.81885 4Z" fill="#FF0100"/>
</svg>
