<svg width="14" height="14" viewBox="0 0 14 14" fill="none" xmlns="http://www.w3.org/2000/svg">
<path d="M12.98 3.13439L7.48 0.125011C7.33305 0.0438126 7.16789 0.0012207 7 0.0012207C6.83211 0.0012207 6.66695 0.0438126 6.52 0.125011L1.02 3.13564C0.86293 3.22158 0.731815 3.34811 0.640345 3.50203C0.548875 3.65594 0.500406 3.83159 0.5 4.01064V9.98814C0.500406 10.1672 0.548875 10.3428 0.640345 10.4967C0.731815 10.6507 0.86293 10.7772 1.02 10.8631L6.52 13.8738C6.66695 13.955 6.83211 13.9976 7 13.9976C7.16789 13.9976 7.33305 13.955 7.48 13.8738L12.98 10.8631C13.1371 10.7772 13.2682 10.6507 13.3597 10.4967C13.4511 10.3428 13.4996 10.1672 13.5 9.98814V4.01126C13.4999 3.8319 13.4516 3.65586 13.3601 3.50158C13.2686 3.34731 13.1373 3.22048 12.98 3.13439ZM7 1.00001L12.0212 3.75001L10.1606 4.76876L5.13875 2.01876L7 1.00001ZM7 6.50001L1.97875 3.75001L4.0975 2.59001L9.11875 5.34001L7 6.50001ZM1.5 4.62501L6.5 7.36126V12.7231L1.5 9.98876V4.62501ZM12.5 9.98626L7.5 12.7231V7.36376L9.5 6.26939V8.50001C9.5 8.63262 9.55268 8.7598 9.64645 8.85357C9.74021 8.94733 9.86739 9.00001 10 9.00001C10.1326 9.00001 10.2598 8.94733 10.3536 8.85357C10.4473 8.7598 10.5 8.63262 10.5 8.50001V5.72189L12.5 4.62501V9.98564V9.98626Z" fill="#475467"/>
</svg>
