<svg width="20" height="21" viewBox="0 0 20 21" fill="none" xmlns="http://www.w3.org/2000/svg">
<path d="M15.625 11.3555C15.625 11.5212 15.5592 11.6802 15.4419 11.7974C15.3247 11.9146 15.1658 11.9805 15 11.9805H5C4.83424 11.9805 4.67527 11.9146 4.55806 11.7974C4.44085 11.6802 4.375 11.5212 4.375 11.3555C4.375 11.1897 4.44085 11.0307 4.55806 10.9135C4.67527 10.7963 4.83424 10.7305 5 10.7305H15C15.1658 10.7305 15.3247 10.7963 15.4419 10.9135C15.5592 11.0307 15.625 11.1897 15.625 11.3555ZM18.125 6.98047H1.875C1.70924 6.98047 1.55027 7.04632 1.43306 7.16353C1.31585 7.28074 1.25 7.43971 1.25 7.60547C1.25 7.77123 1.31585 7.9302 1.43306 8.04741C1.55027 8.16462 1.70924 8.23047 1.875 8.23047H18.125C18.2908 8.23047 18.4497 8.16462 18.5669 8.04741C18.6842 7.9302 18.75 7.77123 18.75 7.60547C18.75 7.43971 18.6842 7.28074 18.5669 7.16353C18.4497 7.04632 18.2908 6.98047 18.125 6.98047ZM11.875 14.4805H8.125C7.95924 14.4805 7.80027 14.5463 7.68306 14.6635C7.56585 14.7807 7.5 14.9397 7.5 15.1055C7.5 15.2712 7.56585 15.4302 7.68306 15.5474C7.80027 15.6646 7.95924 15.7305 8.125 15.7305H11.875C12.0408 15.7305 12.1997 15.6646 12.3169 15.5474C12.4342 15.4302 12.5 15.2712 12.5 15.1055C12.5 14.9397 12.4342 14.7807 12.3169 14.6635C12.1997 14.5463 12.0408 14.4805 11.875 14.4805Z" fill="white"/>
</svg>
