<svg width="20" height="20" viewBox="0 0 20 20" fill="none" xmlns="http://www.w3.org/2000/svg">
<g id="Riyal 1">
<path id="Vector" d="M11.5728 15.7335C11.3311 16.367 11.1731 17.0558 11.1111 17.7777L16.205 16.4885C16.4466 15.855 16.6047 15.1663 16.6666 14.4443L11.5728 15.7335Z" fill="white"/>
<path id="Vector_2" d="M16.2104 13.3604C16.4493 12.8083 16.6055 12.2081 16.6667 11.579L12.7439 12.452V10.7701L16.2104 9.99649C16.4493 9.44439 16.6055 8.84414 16.6667 8.21501L12.7439 9.08809V3.0439C12.1437 3.39698 11.6078 3.86883 11.176 4.42414V9.43797L9.60806 9.78785V2.22217C9.00785 2.57525 8.47194 3.04711 8.04016 3.60241V10.1377L4.53074 10.9209C4.29188 11.473 4.1357 12.0733 4.07446 12.7024L8.04016 11.8197V13.9382L3.78966 14.8851C3.5508 15.4372 3.39462 16.0375 3.33337 16.6666L7.78292 15.6748C8.14428 15.5945 8.45663 15.3698 8.65875 15.0617L9.47332 13.7938C9.55907 13.6622 9.60806 13.5049 9.60806 13.3348V11.4698L11.176 11.1199V14.4807L16.2104 13.3572V13.3604Z" fill="white"/>
</g>
</svg>
