<svg width="18" height="16" viewBox="0 0 18 16" fill="none" xmlns="http://www.w3.org/2000/svg">
<path d="M17.0688 5.5C17.0692 5.44189 17.0613 5.38403 17.0454 5.32812L15.9243 1.40625C15.849 1.14603 15.6915 0.917159 15.4753 0.753823C15.2592 0.590487 14.996 0.501448 14.7251 0.5H3.1626C2.89169 0.501448 2.62851 0.590487 2.41238 0.753823C2.19624 0.917159 2.03873 1.14603 1.96338 1.40625L0.843067 5.32812C0.826928 5.38399 0.818774 5.44185 0.818848 5.5V6.75C0.818848 7.23514 0.931802 7.71362 1.14876 8.14754C1.36572 8.58147 1.68074 8.95892 2.06885 9.25V14.875C2.06885 15.0408 2.1347 15.1997 2.25191 15.3169C2.36912 15.4342 2.52809 15.5 2.69385 15.5H15.1938C15.3596 15.5 15.5186 15.4342 15.6358 15.3169C15.753 15.1997 15.8188 15.0408 15.8188 14.875V9.25C16.207 8.95892 16.522 8.58147 16.7389 8.14754C16.9559 7.71362 17.0688 7.23514 17.0688 6.75V5.5ZM3.1626 1.75H14.7251L15.6173 4.875H2.27275L3.1626 1.75ZM7.06885 6.125H10.8188V6.75C10.8188 7.24728 10.6213 7.72419 10.2697 8.07583C9.91804 8.42746 9.44113 8.625 8.94385 8.625C8.44657 8.625 7.96965 8.42746 7.61802 8.07583C7.26639 7.72419 7.06885 7.24728 7.06885 6.75V6.125ZM5.81885 6.125V6.75C5.81874 7.07243 5.73548 7.38938 5.57712 7.67023C5.41877 7.95109 5.19066 8.18637 4.91483 8.35334C4.63901 8.52031 4.32479 8.61333 4.00252 8.62342C3.68025 8.63351 3.36083 8.56033 3.0751 8.41094C3.03162 8.37709 2.9838 8.34924 2.93291 8.32812C2.66813 8.15861 2.45022 7.92524 2.29923 7.64947C2.14824 7.3737 2.06902 7.0644 2.06885 6.75V6.125H5.81885ZM14.5688 14.25H3.31885V9.8125C3.5246 9.85398 3.73396 9.87491 3.94385 9.875C4.42899 9.875 4.90747 9.76205 5.34139 9.54508C5.77531 9.32812 6.15276 9.01311 6.44385 8.625C6.73493 9.01311 7.11238 9.32812 7.54631 9.54508C7.98023 9.76205 8.45871 9.875 8.94385 9.875C9.42899 9.875 9.90747 9.76205 10.3414 9.54508C10.7753 9.32812 11.1528 9.01311 11.4438 8.625C11.7349 9.01311 12.1124 9.32812 12.5463 9.54508C12.9802 9.76205 13.4587 9.875 13.9438 9.875C14.1537 9.87491 14.3631 9.85398 14.5688 9.8125V14.25ZM14.954 8.32812C14.9038 8.34928 14.8565 8.37686 14.8134 8.41016C14.5277 8.5597 14.2082 8.63304 13.8859 8.62307C13.5636 8.61311 13.2493 8.5202 12.9734 8.35329C12.6975 8.18639 12.4693 7.95115 12.3108 7.6703C12.1524 7.38944 12.069 7.07247 12.0688 6.75V6.125H15.8188V6.75C15.8186 7.06447 15.7393 7.37382 15.5881 7.6496C15.437 7.92537 15.2189 8.1587 14.954 8.32812Z" fill="#FF0100"/>
</svg>
