<svg width="14" height="14" viewBox="0 0 14 14" fill="none" xmlns="http://www.w3.org/2000/svg">
<path d="M13.1163 5.42625C12.8806 5.18 12.6369 4.92625 12.545 4.70312C12.46 4.49875 12.455 4.16 12.45 3.83187C12.4406 3.22187 12.4306 2.53062 11.95 2.05C11.4694 1.56937 10.7781 1.55937 10.1681 1.55C9.84 1.545 9.50125 1.54 9.29688 1.455C9.07438 1.36312 8.82 1.11937 8.57375 0.88375C8.1425 0.469375 7.6525 0 7 0C6.3475 0 5.85812 0.469375 5.42625 0.88375C5.18 1.11937 4.92625 1.36312 4.70312 1.455C4.5 1.54 4.16 1.545 3.83187 1.55C3.22187 1.55937 2.53062 1.56937 2.05 2.05C1.56937 2.53062 1.5625 3.22187 1.55 3.83187C1.545 4.16 1.54 4.49875 1.455 4.70312C1.36312 4.92562 1.11937 5.18 0.88375 5.42625C0.469375 5.85812 0 6.3475 0 7C0 7.6525 0.469375 8.14187 0.88375 8.57375C1.11937 8.82 1.36312 9.07375 1.455 9.29688C1.54 9.50125 1.545 9.84 1.55 10.1681C1.55937 10.7781 1.56937 11.4694 2.05 11.95C2.53062 12.4306 3.22187 12.4406 3.83187 12.45C4.16 12.455 4.49875 12.46 4.70312 12.545C4.92562 12.6369 5.18 12.8806 5.42625 13.1163C5.8575 13.5306 6.3475 14 7 14C7.6525 14 8.14187 13.5306 8.57375 13.1163C8.82 12.8806 9.07375 12.6369 9.29688 12.545C9.50125 12.46 9.84 12.455 10.1681 12.45C10.7781 12.4406 11.4694 12.4306 11.95 11.95C12.4306 11.4694 12.4406 10.7781 12.45 10.1681C12.455 9.84 12.46 9.50125 12.545 9.29688C12.6369 9.07438 12.8806 8.82 13.1163 8.57375C13.5306 8.14187 14 7.6525 14 7C14 6.3475 13.5306 5.85812 13.1163 5.42625ZM12.3944 7.88188C12.095 8.19438 11.785 8.5175 11.6206 8.91438C11.4631 9.29563 11.4563 9.73125 11.45 10.1531C11.4437 10.5906 11.4369 11.0487 11.2425 11.2425C11.0481 11.4363 10.5931 11.4437 10.1531 11.45C9.73125 11.4563 9.29563 11.4631 8.91438 11.6206C8.5175 11.785 8.19438 12.095 7.88188 12.3944C7.56938 12.6937 7.25 13 7 13C6.75 13 6.42812 12.6925 6.11812 12.3944C5.80813 12.0962 5.4825 11.785 5.08563 11.6206C4.70438 11.4631 4.26875 11.4563 3.84688 11.45C3.40938 11.4437 2.95125 11.4369 2.7575 11.2425C2.56375 11.0481 2.55625 10.5931 2.55 10.1531C2.54375 9.73125 2.53688 9.29563 2.37937 8.91438C2.215 8.5175 1.905 8.19438 1.60562 7.88188C1.30625 7.56938 1 7.25 1 7C1 6.75 1.3075 6.42875 1.60562 6.11812C1.90375 5.8075 2.215 5.4825 2.37937 5.08563C2.53688 4.70438 2.54375 4.26875 2.55 3.84688C2.55625 3.40938 2.56312 2.95125 2.7575 2.7575C2.95187 2.56375 3.40688 2.55625 3.84688 2.55C4.26875 2.54375 4.70438 2.53688 5.08563 2.37937C5.4825 2.215 5.80562 1.905 6.11812 1.60562C6.43062 1.30625 6.75 1 7 1C7.25 1 7.57188 1.3075 7.88188 1.60562C8.19188 1.90375 8.5175 2.215 8.91438 2.37937C9.29563 2.53688 9.73125 2.54375 10.1531 2.55C10.5906 2.55625 11.0487 2.56312 11.2425 2.7575C11.4363 2.95187 11.4437 3.40688 11.45 3.84688C11.4563 4.26875 11.4631 4.70438 11.6206 5.08563C11.785 5.4825 12.095 5.80562 12.3944 6.11812C12.6937 6.43062 13 6.75 13 7C13 7.25 12.6925 7.57125 12.3944 7.88188ZM6.5 5C6.5 4.70333 6.41203 4.41332 6.2472 4.16664C6.08238 3.91997 5.84811 3.72771 5.57403 3.61418C5.29994 3.50065 4.99834 3.47094 4.70736 3.52882C4.41639 3.5867 4.14912 3.72956 3.93934 3.93934C3.72956 4.14912 3.5867 4.41639 3.52882 4.70736C3.47094 4.99834 3.50065 5.29994 3.61418 5.57403C3.72771 5.84811 3.91997 6.08238 4.16664 6.2472C4.41332 6.41203 4.70333 6.5 5 6.5C5.39782 6.5 5.77936 6.34196 6.06066 6.06066C6.34196 5.77936 6.5 5.39782 6.5 5ZM4.5 5C4.5 4.90111 4.52932 4.80444 4.58427 4.72221C4.63921 4.63999 4.7173 4.5759 4.80866 4.53806C4.90002 4.50022 5.00055 4.49031 5.09755 4.50961C5.19454 4.5289 5.28363 4.57652 5.35355 4.64645C5.42348 4.71637 5.4711 4.80546 5.49039 4.90245C5.50969 4.99945 5.49978 5.09998 5.46194 5.19134C5.4241 5.2827 5.36001 5.36079 5.27779 5.41573C5.19556 5.47068 5.09889 5.5 5 5.5C4.86739 5.5 4.74021 5.44732 4.64645 5.35355C4.55268 5.25979 4.5 5.13261 4.5 5ZM9 7.5C8.70333 7.5 8.41332 7.58797 8.16665 7.7528C7.91997 7.91762 7.72771 8.15189 7.61418 8.42597C7.50065 8.70006 7.47094 9.00166 7.52882 9.29264C7.5867 9.58361 7.72956 9.85088 7.93934 10.0607C8.14912 10.2704 8.41639 10.4133 8.70736 10.4712C8.99834 10.5291 9.29994 10.4994 9.57403 10.3858C9.84811 10.2723 10.0824 10.08 10.2472 9.83335C10.412 9.58668 10.5 9.29667 10.5 9C10.5 8.60218 10.342 8.22064 10.0607 7.93934C9.77936 7.65804 9.39782 7.5 9 7.5ZM9 9.5C8.90111 9.5 8.80444 9.47068 8.72221 9.41574C8.63999 9.36079 8.5759 9.2827 8.53806 9.19134C8.50022 9.09998 8.49031 8.99944 8.50961 8.90245C8.5289 8.80546 8.57652 8.71637 8.64645 8.64645C8.71637 8.57652 8.80546 8.5289 8.90245 8.50961C8.99944 8.49031 9.09998 8.50022 9.19134 8.53806C9.2827 8.5759 9.36079 8.63999 9.41574 8.72221C9.47068 8.80444 9.5 8.90111 9.5 9C9.5 9.13261 9.44732 9.25979 9.35355 9.35355C9.25979 9.44732 9.13261 9.5 9 9.5ZM9.85375 4.85375L4.85375 9.85375C4.8073 9.90021 4.75214 9.93705 4.69145 9.9622C4.63075 9.98734 4.5657 10.0003 4.5 10.0003C4.4343 10.0003 4.36925 9.98734 4.30855 9.9622C4.24786 9.93705 4.1927 9.90021 4.14625 9.85375C4.09979 9.80729 4.06294 9.75214 4.0378 9.69145C4.01266 9.63075 3.99972 9.5657 3.99972 9.5C3.99972 9.4343 4.01266 9.36925 4.0378 9.30855C4.06294 9.24786 4.09979 9.19271 4.14625 9.14625L9.14625 4.14625C9.19271 4.09979 9.24786 4.06294 9.30855 4.0378C9.36925 4.01266 9.4343 3.99972 9.5 3.99972C9.5657 3.99972 9.63075 4.01266 9.69145 4.0378C9.75214 4.06294 9.80729 4.09979 9.85375 4.14625C9.90021 4.1927 9.93705 4.24786 9.9622 4.30855C9.98734 4.36925 10.0003 4.4343 10.0003 4.5C10.0003 4.5657 9.98734 4.63075 9.9622 4.69145C9.93705 4.75214 9.90021 4.8073 9.85375 4.85375Z" fill="#475467"/>
</svg>
