<svg width="18" height="18" viewBox="0 0 18 18" fill="none" xmlns="http://www.w3.org/2000/svg">
<path d="M8.94388 5.25004C8.2022 5.25004 7.47718 5.46997 6.86049 5.88202C6.24381 6.29408 5.76316 6.87975 5.47934 7.56497C5.19551 8.2502 5.12124 9.0042 5.26594 9.73162C5.41063 10.4591 5.76779 11.1272 6.29223 11.6517C6.81668 12.1761 7.48487 12.5333 8.21229 12.678C8.93972 12.8227 9.69372 12.7484 10.3789 12.4646C11.0642 12.1808 11.6498 11.7001 12.0619 11.0834C12.4739 10.4667 12.6939 9.74172 12.6939 9.00004C12.6928 8.00579 12.2974 7.05256 11.5944 6.34953C10.8914 5.64649 9.93813 5.25107 8.94388 5.25004ZM8.94388 11.5C8.44943 11.5 7.96608 11.3534 7.55496 11.0787C7.14384 10.804 6.8234 10.4136 6.63418 9.95674C6.44497 9.49993 6.39546 8.99726 6.49192 8.51231C6.58838 8.02736 6.82649 7.5819 7.17612 7.23227C7.52575 6.88264 7.97121 6.64454 8.45616 6.54807C8.94111 6.45161 9.44378 6.50112 9.90059 6.69034C10.3574 6.87956 10.7479 7.19999 11.0226 7.61111C11.2973 8.02223 11.4439 8.50558 11.4439 9.00004C11.4439 9.66308 11.1805 10.299 10.7116 10.7678C10.2428 11.2366 9.60693 11.5 8.94388 11.5ZM15.8189 9.16879C15.822 9.05629 15.822 8.94379 15.8189 8.83129L16.9845 7.37504C17.0456 7.29858 17.0879 7.20883 17.108 7.11303C17.1281 7.01722 17.1254 6.91804 17.1001 6.82347C16.909 6.10519 16.6232 5.41554 16.2501 4.77269C16.2013 4.68857 16.1335 4.617 16.0521 4.5637C15.9707 4.5104 15.878 4.47683 15.7814 4.46566L13.9283 4.25941C13.8512 4.17816 13.7731 4.10004 13.6939 4.02504L13.4751 2.16722C13.4639 2.07051 13.4302 1.97777 13.3768 1.89639C13.3233 1.815 13.2516 1.74723 13.1673 1.69847C12.5242 1.32609 11.8346 1.04053 11.1165 0.849254C11.0219 0.824096 10.9227 0.821523 10.8269 0.841742C10.7311 0.861962 10.6414 0.904408 10.565 0.965661L9.11263 2.12504C9.00013 2.12504 8.88763 2.12504 8.77513 2.12504L7.31888 0.961754C7.24242 0.900636 7.15268 0.858331 7.05687 0.838248C6.96107 0.818164 6.86189 0.820864 6.76732 0.846129C6.04916 1.03756 5.35955 1.32338 4.71654 1.69613C4.63241 1.74498 4.56085 1.81279 4.50755 1.89417C4.45425 1.97555 4.42067 2.06824 4.40951 2.16488L4.20326 4.02113C4.12201 4.09873 4.04388 4.17686 3.96888 4.2555L2.11107 4.46879C2.01436 4.48004 1.92162 4.51373 1.84024 4.56717C1.75885 4.62061 1.69108 4.69233 1.64232 4.7766C1.26994 5.4197 0.984379 6.10929 0.793102 6.82738C0.767943 6.92201 0.76537 7.02122 0.78559 7.11703C0.805809 7.21284 0.848256 7.30255 0.909508 7.37894L2.06888 8.83129C2.06888 8.94379 2.06888 9.05629 2.06888 9.16879L0.905602 10.625C0.844484 10.7015 0.802179 10.7912 0.782095 10.887C0.762012 10.9828 0.764711 11.082 0.789977 11.1766C0.981063 11.8949 1.26691 12.5845 1.63998 13.2274C1.68883 13.3115 1.75664 13.3831 1.83802 13.4364C1.91939 13.4897 2.01209 13.5232 2.10873 13.5344L3.96185 13.7407C4.03946 13.8219 4.11758 13.9 4.19623 13.975L4.41263 15.8328C4.42388 15.9296 4.45757 16.0223 4.51102 16.1037C4.56446 16.1851 4.63617 16.2528 4.72045 16.3016C5.36354 16.674 6.05313 16.9595 6.77123 17.1508C6.86586 17.176 6.96507 17.1785 7.06088 17.1583C7.15668 17.1381 7.2464 17.0957 7.32279 17.0344L8.77513 15.875C8.88763 15.8782 9.00013 15.8782 9.11263 15.875L10.5689 17.0407C10.6453 17.1018 10.7351 17.1441 10.8309 17.1642C10.9267 17.1842 11.0259 17.1816 11.1204 17.1563C11.8387 16.9652 12.5284 16.6794 13.1712 16.3063C13.2554 16.2574 13.3269 16.1896 13.3802 16.1082C13.4335 16.0269 13.4671 15.9342 13.4783 15.8375L13.6845 13.9844C13.7658 13.9073 13.8439 13.8292 13.9189 13.75L15.7767 13.5313C15.8734 13.52 15.9661 13.4863 16.0475 13.4329C16.1289 13.3795 16.1967 13.3077 16.2454 13.2235C16.6178 12.5804 16.9034 11.8908 17.0947 11.1727C17.1198 11.0781 17.1224 10.9788 17.1022 10.883C17.082 10.7872 17.0395 10.6975 16.9783 10.6211L15.8189 9.16879ZM14.5611 8.66097C14.5744 8.88682 14.5744 9.11325 14.5611 9.3391C14.5518 9.49372 14.6002 9.64629 14.697 9.76722L15.8056 11.1524C15.6784 11.5567 15.5155 11.9488 15.3189 12.3243L13.5533 12.5243C13.3995 12.5413 13.2575 12.6148 13.1548 12.7305C13.0044 12.8996 12.8443 13.0598 12.6751 13.2102C12.5594 13.3129 12.486 13.4549 12.4689 13.6086L12.2728 15.3727C11.8974 15.5694 11.5052 15.7323 11.1009 15.8594L9.71498 14.7508C9.60407 14.6622 9.46631 14.614 9.32435 14.6141H9.28685C9.06101 14.6274 8.83457 14.6274 8.60873 14.6141C8.4541 14.6048 8.30153 14.6532 8.1806 14.75L6.79154 15.8594C6.38727 15.7322 5.9951 15.5693 5.61966 15.3727L5.41966 13.6094C5.4026 13.4556 5.32911 13.3137 5.21341 13.211C5.04428 13.0606 4.88411 12.9004 4.73373 12.7313C4.63102 12.6156 4.48905 12.5421 4.33529 12.525L2.57123 12.3282C2.3745 11.9528 2.21162 11.5606 2.08451 11.1563L3.1931 9.77035C3.2899 9.64942 3.33835 9.49685 3.32904 9.34222C3.31576 9.11638 3.31576 8.88995 3.32904 8.6641C3.33835 8.50947 3.2899 8.3569 3.1931 8.23597L2.08451 6.84769C2.21172 6.44342 2.3746 6.05125 2.57123 5.67582L4.33451 5.47582C4.48827 5.45875 4.63024 5.38526 4.73295 5.26957C4.88333 5.10043 5.0435 4.94026 5.21263 4.78988C5.32879 4.6871 5.40258 4.54481 5.41966 4.39066L5.61576 2.62738C5.99115 2.43065 6.38333 2.26777 6.78763 2.14066L8.17357 3.24925C8.2945 3.34606 8.44707 3.3945 8.6017 3.38519C8.82754 3.37191 9.05397 3.37191 9.27982 3.38519C9.43444 3.3945 9.58701 3.34606 9.70795 3.24925L11.0962 2.14066C11.5005 2.26787 11.8927 2.43075 12.2681 2.62738L12.4681 4.39066C12.4852 4.54442 12.5587 4.68639 12.6744 4.7891C12.8435 4.93948 13.0037 5.09965 13.154 5.26879C13.2567 5.38448 13.3987 5.45797 13.5525 5.47504L15.3165 5.67113C15.5133 6.04652 15.6761 6.4387 15.8033 6.843L14.6947 8.22894C14.5969 8.35089 14.5484 8.50503 14.5587 8.66097H14.5611Z" fill="black"/>
</svg>
