<svg width="13" height="14" viewBox="0 0 13 14" fill="none" xmlns="http://www.w3.org/2000/svg">
<path d="M12.4919 6.12501L1.99186 0.131888C1.81475 0.0321838 1.61146 -0.0111854 1.40908 0.00755806C1.2067 0.0263015 1.01484 0.106268 0.85905 0.236803C0.703263 0.367338 0.59095 0.542244 0.537074 0.73822C0.483199 0.934196 0.490318 1.14194 0.557484 1.33376L2.47186 7.00001L0.557484 12.6669C0.504207 12.8177 0.487875 12.9791 0.509858 13.1375C0.531841 13.2959 0.591498 13.4467 0.683823 13.5773C0.776148 13.7079 0.898448 13.8144 1.04046 13.888C1.18247 13.9615 1.34005 14 1.49998 14C1.67374 13.9996 1.84445 13.9544 1.99561 13.8688L12.4906 7.86564C12.6454 7.77892 12.7744 7.65258 12.8642 7.49958C12.954 7.34658 13.0016 7.17242 13.0019 6.99499C13.0022 6.81756 12.9553 6.64323 12.866 6.48991C12.7767 6.33659 12.6482 6.20978 12.4937 6.12251L12.4919 6.12501ZM1.49998 13C1.50025 12.9975 1.50025 12.995 1.49998 12.9925L3.35873 7.50001H6.99998C7.13259 7.50001 7.25977 7.44733 7.35354 7.35357C7.44731 7.2598 7.49998 7.13262 7.49998 7.00001C7.49998 6.8674 7.44731 6.74023 7.35354 6.64646C7.25977 6.55269 7.13259 6.50001 6.99998 6.50001H3.35873L1.50373 1.01001C1.50312 1.00647 1.50185 1.00308 1.49998 1.00001L12 6.98939L1.49998 13Z" fill="#475467"/>
</svg>
