<svg width="17" height="16" viewBox="0 0 17 16" fill="none" xmlns="http://www.w3.org/2000/svg">
<path d="M7.3125 14.1875C7.3125 14.41 7.24652 14.6275 7.1229 14.8125C6.99929 14.9975 6.82359 15.1417 6.61802 15.2269C6.41245 15.312 6.18625 15.3343 5.96802 15.2909C5.74979 15.2475 5.54934 15.1403 5.392 14.983C5.23467 14.8257 5.12752 14.6252 5.08412 14.407C5.04071 14.1887 5.06299 13.9625 5.14814 13.757C5.23328 13.5514 5.37748 13.3757 5.56248 13.2521C5.74749 13.1285 5.965 13.0625 6.1875 13.0625C6.48587 13.0625 6.77202 13.181 6.983 13.392C7.19397 13.603 7.3125 13.8891 7.3125 14.1875ZM13.5 13.0625C13.2775 13.0625 13.06 13.1285 12.875 13.2521C12.69 13.3757 12.5458 13.5514 12.4606 13.757C12.3755 13.9625 12.3532 14.1887 12.3966 14.407C12.44 14.6252 12.5472 14.8257 12.7045 14.983C12.8618 15.1403 13.0623 15.2475 13.2805 15.2909C13.4988 15.3343 13.725 15.312 13.9305 15.2269C14.1361 15.1417 14.3118 14.9975 14.4354 14.8125C14.559 14.6275 14.625 14.41 14.625 14.1875C14.625 13.8891 14.5065 13.603 14.2955 13.392C14.0845 13.181 13.7984 13.0625 13.5 13.0625ZM16.8546 4.21297L15.0518 10.7014C14.9527 11.0558 14.7407 11.3683 14.4479 11.5914C14.1552 11.8144 13.7977 11.936 13.4297 11.9375H6.48C6.11088 11.9373 5.75195 11.8164 5.45794 11.5933C5.16393 11.3701 4.95098 11.0569 4.85156 10.7014L2.385 1.8125H1.125C0.975816 1.8125 0.832742 1.75324 0.727252 1.64775C0.621763 1.54226 0.5625 1.39918 0.5625 1.25C0.5625 1.10082 0.621763 0.957742 0.727252 0.852252C0.832742 0.746763 0.975816 0.6875 1.125 0.6875H2.8125C2.93548 0.687476 3.05507 0.727755 3.15298 0.80217C3.25089 0.876585 3.32171 0.981035 3.35461 1.09953L4.02117 3.5H16.3125C16.3992 3.49998 16.4848 3.52002 16.5625 3.55853C16.6402 3.59705 16.7079 3.65301 16.7604 3.72204C16.8129 3.79107 16.8487 3.8713 16.865 3.95646C16.8814 4.04162 16.8778 4.12941 16.8546 4.21297ZM15.5721 4.625H4.33406L5.93789 10.4005C5.97079 10.519 6.04161 10.6234 6.13952 10.6978C6.23743 10.7722 6.35702 10.8125 6.48 10.8125H13.4297C13.5527 10.8125 13.6723 10.7722 13.7702 10.6978C13.8681 10.6234 13.9389 10.519 13.9718 10.4005L15.5721 4.625Z" fill="#475467"/>
</svg>
